<?xml version="1.0" standalone="no"?>
<!DOCTYPE svg PUBLIC "-//W3C//DTD SVG 20010904//EN"
 "http://www.w3.org/TR/2001/REC-SVG-20010904/DTD/svg10.dtd">
<svg version="1.0" xmlns="http://www.w3.org/2000/svg"
 width="1000.000000pt" height="1000.000000pt" viewBox="0 0 1000.000000 1000.000000"
 preserveAspectRatio="xMidYMid meet">
<metadata>
Created by potrace 1.14, written by Peter Selinger 2001-2017
</metadata>
<g transform="translate(0.000000,1000.000000) scale(0.100000,-0.100000)"
fill="#000000" stroke="none">
<path d="M7813 7752 c-97 -28 -164 -100 -186 -198 -29 -128 31 -250 152 -306
44 -21 59 -22 441 -24 217 -1 398 -2 401 -3 4 0 -339 -347 -763 -771 l-769
-770 -177 89 c-97 49 -373 187 -612 306 -239 120 -440 221 -446 226 -21 17
-122 37 -164 32 -48 -6 -112 -33 -145 -61 -37 -32 -82 -96 -375 -537 -161
-242 -329 -494 -374 -560 -44 -66 -117 -176 -163 -245 -46 -69 -88 -132 -93
-140 -6 -8 -60 -89 -120 -180 -61 -91 -136 -204 -168 -252 l-58 -87 -600 300
c-329 164 -614 304 -632 310 -59 19 -171 15 -226 -10 -41 -18 -234 -206 -1146
-1119 -882 -883 -1100 -1107 -1119 -1146 -29 -63 -30 -157 -3 -219 60 -135
224 -199 356 -139 40 18 237 210 1068 1042 l1019 1020 579 -290 c318 -160 582
-290 586 -290 4 0 15 -6 23 -13 36 -31 127 -60 186 -60 93 0 163 37 227 124
20 27 757 1132 892 1336 11 18 24 33 29 33 4 0 7 4 7 10 0 5 82 133 183 284
l184 275 609 -305 c642 -321 659 -328 768 -317 98 11 88 3 956 871 456 455
839 837 853 850 l24 23 0 -383 c0 -211 3 -401 7 -422 14 -74 78 -150 156 -185
105 -48 248 -10 317 82 60 81 59 70 57 882 -1 724 -1 741 -22 786 -34 78 -104
137 -182 155 -19 4 -363 8 -764 8 -573 1 -738 -2 -773 -12z"/>
</g>
</svg>
